<?xml version="1.0" encoding="UTF-8" standalone="no"?>
<!-- Created with Inkscape (http://www.inkscape.org/) -->
<svg
   xmlns:svg="http://www.w3.org/2000/svg"
   xmlns="http://www.w3.org/2000/svg"
   version="1.0"
   width="681.81635"
   height="200"
   id="svg2"
   xml:space="preserve"><defs
     id="defs5"><clipPath
       id="clipPath19"><path
         d="M 0,0 L 193,0 L 193,192 L 0,192 L 0,0 z "
         id="path21" /></clipPath></defs><g
     transform="matrix(1.379128,0,0,1.425733,-66.89855,-467.6565)"
     id="g1950"><g
       transform="matrix(28.15098,0,0,26.80274,20.39896,-27709.32)"
       id="layer1"><path
         d="M 6.0400657,1046.1242 L 3.5489267,1046.1242 L 3.5489267,1048.6834 L 6.0400657,1048.6834 L 6.0400657,1046.1242 z "
         style="fill:white;fill-rule:nonzero;stroke:none"
         id="path89368" /><path
         d="M 6.0400657,1048.6893 L 6.0400657,1046.1242 L 3.5435228,1046.1242 L 3.5435228,1048.6893 L 6.0400657,1048.6893 z "
         style="fill:none;stroke:black;stroke-width:0.10616075;stroke-linecap:butt;stroke-linejoin:miter;stroke-miterlimit:4"
         id="path89370" /><path
         d="M 11.027747,1046.1242 L 8.5366085,1046.1242 L 8.5366085,1048.6834 L 11.027747,1048.6834 L 11.027747,1046.1242 z "
         style="fill:white;fill-rule:nonzero;stroke:none"
         id="path89372" /><path
         d="M 11.027747,1048.6893 L 11.027747,1046.1242 L 8.5312047,1046.1242 L 8.5312047,1048.6893 L 11.027747,1048.6893 z "
         style="fill:none;stroke:black;stroke-width:0.10616075;stroke-linecap:butt;stroke-linejoin:miter;stroke-miterlimit:4"
         id="path89374" /><path
         d="M 16.01543,1046.1242 L 13.518887,1046.1242 L 13.518887,1048.6834 L 16.01543,1048.6834 L 16.01543,1046.1242 z "
         style="fill:white;fill-rule:nonzero;stroke:none"
         id="path89376" /><path
         d="M 16.01543,1048.6893 L 16.01543,1046.1242 L 13.518887,1046.1242 L 13.518887,1048.6893 L 16.01543,1048.6893 z "
         style="fill:none;stroke:black;stroke-width:0.10616075;stroke-linecap:butt;stroke-linejoin:miter;stroke-miterlimit:4"
         id="path89378" /><path
         d="M 3.5435228,1046.1242 L 1.04698,1046.1242 L 1.04698,1048.6834 L 3.5435228,1048.6834 L 3.5435228,1046.1242 z "
         style="fill:black;fill-rule:nonzero;stroke:none"
         id="path89380" /><path
         d="M 3.5435228,1048.6893 L 3.5435228,1046.1242 L 1.0523838,1046.1242 L 1.0523838,1048.6893 L 3.5435228,1048.6893 z "
         style="fill:none;stroke:black;stroke-width:0.10616075;stroke-linecap:butt;stroke-linejoin:miter;stroke-miterlimit:4"
         id="path89382" /><path
         d="M 8.5312047,1046.1242 L 6.034662,1046.1242 L 6.034662,1048.6834 L 8.5312047,1048.6834 L 8.5312047,1046.1242 z "
         style="fill:black;fill-rule:nonzero;stroke:none"
         id="path89384" /><path
         d="M 8.5312047,1048.6893 L 8.5312047,1046.1242 L 6.0400657,1046.1242 L 6.0400657,1048.6893 L 8.5312047,1048.6893 z "
         style="fill:none;stroke:black;stroke-width:0.10616075;stroke-linecap:butt;stroke-linejoin:miter;stroke-miterlimit:4"
         id="path89386" /><path
         d="M 13.518887,1046.1242 L 11.027747,1046.1242 L 11.027747,1048.6834 L 13.518887,1048.6834 L 13.518887,1046.1242 z "
         style="fill:black;fill-rule:nonzero;stroke:none"
         id="path89388" /><path
         d="M 13.518887,1048.6893 L 13.518887,1046.1242 L 11.027747,1046.1242 L 11.027747,1048.6893 L 13.518887,1048.6893 z "
         style="fill:none;stroke:black;stroke-width:0.10616075;stroke-linecap:butt;stroke-linejoin:miter;stroke-miterlimit:4"
         id="path89390" /><path
         d="M 18.506569,1046.1242 L 16.01543,1046.1242 L 16.01543,1048.6834 L 18.506569,1048.6834 L 18.506569,1046.1242 z "
         style="fill:black;fill-rule:nonzero;stroke:none"
         id="path89392" /><path
         d="M 18.506569,1048.6893 L 18.506569,1046.1242 L 16.01543,1046.1242 L 16.01543,1048.6893 L 18.506569,1048.6893 z "
         style="fill:none;stroke:black;stroke-width:0.10616075;stroke-linecap:butt;stroke-linejoin:miter;stroke-miterlimit:4"
         id="path89394" /><path
         d="M 14.78337,1048.3136 C 13.524291,1048.3021 13.545906,1046.4534 14.815793,1046.465 C 16.091083,1046.4765 16.037045,1048.3311 14.78337,1048.3136 M 14.804985,1047.0195 C 14.334856,1047.0195 14.356472,1047.7591 14.815793,1047.7475 C 15.258902,1047.7475 15.258902,1047.0195 14.804985,1047.0195"
         style="fill:black;fill-rule:nonzero;stroke:none"
         id="path89396" /><path
         d="M 9.4876724,1048.3196 L 9.4876724,1046.9907 L 8.9905254,1047.0312 L 8.9905254,1046.517 L 10.60085,1046.517 L 10.60085,1047.0195 L 10.11451,1046.9791 L 10.11451,1048.3196 L 9.4876724,1048.3196 z "
         style="fill:black;fill-rule:nonzero;stroke:none"
         id="path89398" /><path
         d="M 3.7218474,1048.3196 L 4.7917943,1046.4765 L 5.867145,1048.3136 L 5.1970771,1048.3196 L 5.0781942,1048.0942 L 4.4513566,1048.0942 L 4.3378774,1048.3196 L 3.7218474,1048.3196 z M 4.6080661,1047.7186 L 4.9106773,1047.7245 L 4.7593717,1047.4009 L 4.6080661,1047.7186 z "
         style="fill:black;fill-rule:nonzero;stroke:none"
         id="path89400" /><path
         d="M 16.377482,1048.2791 L 16.382886,1046.465 L 17.550101,1047.2044 L 17.566312,1046.4765 L 18.128305,1046.4765 L 18.155323,1048.3484 L 16.982705,1047.6089 L 16.982705,1048.2791 L 16.377482,1048.2791 z "
         style="fill:white;fill-rule:nonzero;stroke:none"
         id="path89402" /><path
         d="M 12.286826,1048.3136 C 11.033152,1048.3021 11.049363,1046.4534 12.319249,1046.465 C 13.599944,1046.4765 13.540502,1048.3311 12.286826,1048.3136 M 12.313846,1047.0195 C 11.843717,1047.0195 11.865333,1047.7591 12.324654,1047.7475 C 12.767763,1047.7475 12.762359,1047.0195 12.313846,1047.0195"
         style="fill:white;fill-rule:nonzero;stroke:none"
         id="path89404" /><path
         d="M 7.8449257,1047.5165 L 8.3690916,1048.3021 L 7.601756,1048.3021 L 7.2883371,1047.7937 L 7.0505711,1047.7937 L 7.0505711,1048.3021 L 6.4237334,1048.3021 L 6.4183297,1046.4939 L 7.3261635,1046.4939 L 7.455854,1046.4939 C 7.7854841,1046.4939 8.0826917,1046.6673 8.098903,1047.0195 C 8.1097105,1047.2392 8.0232501,1047.4009 7.8449257,1047.5165 M 7.2342994,1046.9272 L 7.0505711,1046.9272 L 7.0505711,1047.3315 L 7.2126843,1047.3315 L 7.266722,1047.3315 C 7.3369711,1047.3315 7.4666616,1047.2564 7.4612577,1047.1178 C 7.455854,1047.0023 7.3693937,1046.9272 7.2937408,1046.9272 L 7.2342994,1046.9272 z "
         style="fill:white;fill-rule:nonzero;stroke:none"
         id="path89406" /><path
         d="M 1.9764288,1047.4124 C 1.9818327,1047.8226 2.495191,1047.8574 2.6464966,1047.5626 L 3.1976814,1047.7128 C 3.0842022,1048.0364 2.7978023,1048.3716 2.2520213,1048.3311 C 1.0199611,1048.2328 1.1334403,1046.5574 2.1709647,1046.4707 C 2.5222099,1046.4419 2.9869343,1046.5343 3.1868738,1047.0427 L 2.6464966,1047.2392 C 2.473576,1046.8693 1.9710251,1047.0138 1.9764288,1047.4124"
         style="fill:white;fill-rule:nonzero;stroke:none"
         id="path89408" /><path
         d="M 6.0400657,1048.6893 L 3.5489267,1048.6893 L 3.5489267,1051.2485 L 6.0400657,1051.2485 L 6.0400657,1048.6893 z "
         style="fill:black;fill-rule:nonzero;stroke:none"
         id="path89410" /><path
         d="M 6.0400657,1051.2485 L 6.0400657,1048.6893 L 3.5435228,1048.6893 L 3.5435228,1051.2485 L 6.0400657,1051.2485 z "
         style="fill:none;stroke:black;stroke-width:0.10616075;stroke-linecap:butt;stroke-linejoin:miter;stroke-miterlimit:4"
         id="path89412" /><path
         d="M 11.027747,1048.6893 L 8.5366085,1048.6893 L 8.5366085,1051.2485 L 11.027747,1051.2485 L 11.027747,1048.6893 z "
         style="fill:black;fill-rule:nonzero;stroke:none"
         id="path89414" /><path
         d="M 11.027747,1051.2485 L 11.027747,1048.6893 L 8.5312047,1048.6893 L 8.5312047,1051.2485 L 11.027747,1051.2485 z "
         style="fill:none;stroke:black;stroke-width:0.10616075;stroke-linecap:butt;stroke-linejoin:miter;stroke-miterlimit:4"
         id="path89416" /><path
         d="M 16.01543,1048.6893 L 13.518887,1048.6893 L 13.518887,1051.2485 L 16.01543,1051.2485 L 16.01543,1048.6893 z "
         style="fill:black;fill-rule:nonzero;stroke:none"
         id="path89418" /><path
         d="M 16.01543,1051.2485 L 16.01543,1048.6893 L 13.518887,1048.6893 L 13.518887,1051.2485 L 16.01543,1051.2485 z "
         style="fill:none;stroke:black;stroke-width:0.10616075;stroke-linecap:butt;stroke-linejoin:miter;stroke-miterlimit:4"
         id="path89420" /><path
         d="M 3.5435228,1048.6893 L 1.04698,1048.6893 L 1.04698,1051.2485 L 3.5435228,1051.2485 L 3.5435228,1048.6893 z "
         style="fill:white;fill-rule:nonzero;stroke:none"
         id="path89422" /><path
         d="M 3.5435228,1051.2485 L 3.5435228,1048.6893 L 1.0523838,1048.6893 L 1.0523838,1051.2485 L 3.5435228,1051.2485 z "
         style="fill:none;stroke:black;stroke-width:0.10616075;stroke-linecap:butt;stroke-linejoin:miter;stroke-miterlimit:4"
         id="path89424" /><path
         d="M 8.5312047,1048.6893 L 6.034662,1048.6893 L 6.034662,1051.2485 L 8.5312047,1051.2485 L 8.5312047,1048.6893 z "
         style="fill:white;fill-rule:nonzero;stroke:none"
         id="path89426" /><path
         d="M 8.5312047,1051.2485 L 8.5312047,1048.6893 L 6.0400657,1048.6893 L 6.0400657,1051.2485 L 8.5312047,1051.2485 z "
         style="fill:none;stroke:black;stroke-width:0.10616075;stroke-linecap:butt;stroke-linejoin:miter;stroke-miterlimit:4"
         id="path89428" /><path
         d="M 13.518887,1048.6893 L 11.027747,1048.6893 L 11.027747,1051.2485 L 13.518887,1051.2485 L 13.518887,1048.6893 z "
         style="fill:white;fill-rule:nonzero;stroke:none"
         id="path89430" /><path
         d="M 13.518887,1051.2485 L 13.518887,1048.6893 L 11.027747,1048.6893 L 11.027747,1051.2485 L 13.518887,1051.2485 z "
         style="fill:none;stroke:black;stroke-width:0.10616075;stroke-linecap:butt;stroke-linejoin:miter;stroke-miterlimit:4"
         id="path89432" /><path
         d="M 18.506569,1048.6893 L 16.01543,1048.6893 L 16.01543,1051.2485 L 18.506569,1051.2485 L 18.506569,1048.6893 z "
         style="fill:white;fill-rule:nonzero;stroke:none"
         id="path89434" /><path
         d="M 18.506569,1051.2485 L 18.506569,1048.6893 L 16.01543,1048.6893 L 16.01543,1051.2485 L 18.506569,1051.2485 z "
         style="fill:none;stroke:black;stroke-width:0.10616075;stroke-linecap:butt;stroke-linejoin:miter;stroke-miterlimit:4"
         id="path89436" /><path
         d="M 4.0676888,1049.0763 L 5.4240356,1049.0763 L 5.4240356,1049.4923 L 4.6891226,1049.4923 L 4.6891226,1049.7407 L 5.3970167,1049.7407 L 5.3970167,1050.203 L 4.6891226,1050.203 L 4.6891226,1050.4513 L 5.4294394,1050.4513 L 5.4294394,1050.8788 L 4.0730925,1050.8788 L 4.0676888,1049.0763 z "
         style="fill:white;fill-rule:nonzero;stroke:none"
         id="path89438" /><path
         d="M 8.6717028,1049.111 L 9.3525781,1049.111 L 9.49848,1049.7753 L 9.8335139,1049.1052 L 10.173952,1049.7639 L 10.31445,1049.1052 L 10.93048,1049.1052 L 10.238797,1050.9829 L 9.8173026,1050.2779 L 9.4120197,1050.9769 L 8.6717028,1049.111 z "
         style="fill:white;fill-rule:nonzero;stroke:none"
         id="path89440" /><path
         d="M 15.334554,1050.0758 L 15.853316,1050.8615 L 15.091385,1050.8615 L 14.772562,1050.3531 L 14.534796,1050.3531 L 14.534796,1050.8615 L 13.913362,1050.8615 L 13.902555,1049.0532 L 14.810388,1049.0532 L 14.934675,1049.0532 C 15.269708,1049.0532 15.566917,1049.2265 15.583128,1049.5789 C 15.593935,1049.7985 15.507476,1049.9602 15.334554,1050.0758 M 14.723928,1049.4865 L 14.534796,1049.4865 L 14.534796,1049.8909 L 14.702313,1049.8909 L 14.750948,1049.8909 C 14.821196,1049.8909 14.950886,1049.8158 14.945483,1049.6771 C 14.940079,1049.5617 14.859022,1049.4865 14.78337,1049.4865 L 14.723928,1049.4865 z "
         style="fill:white;fill-rule:nonzero;stroke:none"
         id="path89442" /><path
         d="M 1.4684743,1050.8615 L 1.4792818,1049.0532 L 2.6464966,1049.7928 L 2.662708,1049.0647 L 3.2247003,1049.0647 L 3.2463154,1050.9367 L 2.0791006,1050.197 L 2.0791006,1050.8615 L 1.4684743,1050.8615 z "
         style="fill:black;fill-rule:nonzero;stroke:none"
         id="path89444" /><path
         d="M 6.958707,1050.902 L 6.958707,1049.5732 L 6.4669637,1049.6137 L 6.4669637,1049.0995 L 8.0718841,1049.0995 L 8.0718841,1049.602 L 7.5855446,1049.5617 L 7.5855446,1050.902 L 6.958707,1050.902 z "
         style="fill:black;fill-rule:nonzero;stroke:none"
         id="path89446" /><path
         d="M 12.249001,1050.9192 C 10.995325,1050.9077 11.01694,1049.0532 12.281423,1049.0647 C 13.562117,1049.0763 13.508079,1050.9308 12.249001,1050.9192 M 12.27602,1049.6194 C 11.805892,1049.6194 11.827506,1050.3589 12.286826,1050.3531 C 12.729936,1050.3473 12.729936,1049.6194 12.27602,1049.6194"
         style="fill:black;fill-rule:nonzero;stroke:none"
         id="path89448" /><path
         d="M 16.436923,1050.8615 L 16.436923,1049.0532 L 17.036743,1049.0532 L 17.036743,1049.7928 L 17.490659,1049.0532 L 18.144516,1049.0532 L 17.625754,1049.8851 L 18.263398,1050.8615 L 17.517678,1050.8615 L 17.036743,1050.0988 L 17.036743,1050.8615 L 16.436923,1050.8615 z "
         style="fill:black;fill-rule:nonzero;stroke:none"
         id="path89450" /><path
         d="M 18.506569,1051.2485 L 18.506569,1046.1242 L 1.0523838,1046.1242 L 1.0523838,1051.2485 L 18.506569,1051.2485 z "
         style="fill:none;stroke:black;stroke-width:0.03352445;stroke-linecap:butt;stroke-linejoin:miter;stroke-miterlimit:4"
         id="path89452" /></g></g></svg>